<svg xmlns="http://www.w3.org/2000/svg" viewBox="0 0 337.24 250.88"><defs><style>.cls-1{fill:#f66;}.cls-2{fill:#3fc;}.cls-3{fill:#039;}.cls-4{fill:#f06;}</style></defs><title>fademie_logo_1</title><g id="Layer_2" data-name="Layer 2"><g id="Layer_1-2" data-name="Layer 1"><path class="cls-1" d="M312.67,123.25c16.38-10,24.57-29.9,24.57-49.71,0-28.27-16.47-56.54-49.43-56.54h-53v97.71c-3.82.19-7.53.4-11.16.64L192.06,17.16H152L115.34,130.54c-9.31,1.92-18.93,4-29.18,6.21,12.17-12.77,23.26-25,23.49-39.16a12.08,12.08,0,0,0-1.08-4.83h8.86V65.62H82.16c6.68-5.16,6.76-5.53,6.83-5.84.92-4.1-4.94-12.07-9.64-13.12a4.86,4.86,0,0,0-1.11-.13,3.65,3.65,0,0,0-2,.56A48,48,0,0,0,70.1,53.4V45.27h53V17H36.17V130.74C28.53,143.66,24,155.34,24,162.86a24,24,0,0,0,7.84,17.74,24.54,24.54,0,0,0,2.41,1.9L24,250.72H60.19l5-62.52,17.45,62.52H112l17.61-62.52,4.85,62.52h36.34L154.67,143.06c6.54-.7,13.12-1.35,19.71-1.91l4.4-.37,5.48-.41V250.72h33.92v-112c4-.08,7.91-.14,11.82-.14,1.62,0,3.22,0,4.82,0V250.88h86.91V222.61h-53v-14.7h47.33V180.77H268.75V166.23h53V155.1a22.13,22.13,0,0,0,3.79-10.64C326.12,137.1,321.44,129.4,312.67,123.25ZM172,44.46l8.56,32.47H163.47ZM82.61,120.11C70.48,135.92,61.06,140.62,55.85,142c4.84-10.05,12.7-22.14,21.76-33.41C86.39,97.63,92.93,91.71,95.1,91.28a11.75,11.75,0,0,1,1.21,3.58C96.31,98.43,90.8,109.43,82.61,120.11Zm14.73,79.72-7.43-25.72a48.86,48.86,0,0,0,7.39-5.42,4.31,4.31,0,0,0,1.18-3.18c0-3.78-3.06-7-5.57-7-1,0-2.51.83-5,2.2-2,1.07-4.37,2.39-7.19,3.67a51.25,51.25,0,0,1-21.31,4.84c-6.08,0-9.7-3.09-9.7-8.27a5.77,5.77,0,0,1,.11-1l.09-.6,4.11-.79c8.76-1.7,18.27-3.47,28.35-5.22,9.48-1.64,19.47-3.26,29.79-4.79Zm54.42-76.23-.65.11L156,105.2h32l3.34,12.89C177.43,119.6,164.51,121.44,151.76,123.6Zm117-78.33h16.8c11.31,0,17,14,17,28.27,0,14-5.65,28.11-17,28.11h-16.8Z"/><path class="cls-2" d="M301.67,113.25c16.38-10,24.57-29.9,24.57-49.71C326.24,35.27,309.77,7,276.81,7h-53v97.71c-3.82.19-7.53.4-11.16.64L181.06,7.16H141L104.34,120.54c-9.31,1.92-18.93,4-29.18,6.21,12.17-12.77,23.26-25,23.49-39.16a12.08,12.08,0,0,0-1.08-4.83h8.86V55.62H71.16c6.68-5.16,6.76-5.53,6.83-5.84.92-4.1-4.94-12.07-9.64-13.12a4.86,4.86,0,0,0-1.11-.13,3.65,3.65,0,0,0-2,.56A48,48,0,0,0,59.1,43.4V35.27h53V7H25.17V120.74C17.53,133.66,13,145.34,13,152.86a24,24,0,0,0,7.84,17.74,24.54,24.54,0,0,0,2.41,1.9L13,240.72H49.19l5-62.52,17.45,62.52H101l17.61-62.52,4.85,62.52h36.34L143.67,133.06c6.54-.7,13.12-1.35,19.71-1.91l4.4-.37,5.48-.41V240.72h33.92v-112c4-.08,7.91-.14,11.82-.14,1.62,0,3.22,0,4.82,0V240.88h86.91V212.61h-53v-14.7h47.33V170.77H257.75V156.23h53V145.1a22.13,22.13,0,0,0,3.79-10.64C315.12,127.1,310.44,119.4,301.67,113.25ZM161,34.46l8.56,32.47H152.47ZM71.61,110.11C59.48,125.92,50.06,130.62,44.85,132c4.84-10.05,12.7-22.14,21.76-33.41C75.39,87.63,81.93,81.71,84.1,81.28a11.75,11.75,0,0,1,1.21,3.58C85.31,88.43,79.8,99.43,71.61,110.11Zm14.73,79.72-7.43-25.72a48.86,48.86,0,0,0,7.39-5.42,4.31,4.31,0,0,0,1.18-3.18c0-3.78-3.06-7-5.57-7-1,0-2.51.83-5,2.2-2,1.07-4.37,2.39-7.19,3.67a51.25,51.25,0,0,1-21.31,4.84c-6.08,0-9.7-3.09-9.7-8.27a5.77,5.77,0,0,1,.11-1l.09-.6,4.11-.79c8.76-1.7,18.27-3.47,28.35-5.22,9.48-1.64,19.47-3.26,29.79-4.79Zm54.42-76.23-.65.11L145,95.2h32l3.34,12.89C166.43,109.6,153.51,111.44,140.76,113.6Zm117-78.33h16.8c11.31,0,17,14,17,28.27,0,14.05-5.65,28.11-17,28.11h-16.8Z"/><path class="cls-3" d="M313.24,56.54c0,28.11-16.47,56.38-49.43,56.38h-53V0h53C296.77,0,313.24,28.27,313.24,56.54Zm-34.73,0c0-14.22-5.65-28.27-17-28.27h-16.8V84.65h16.8C272.86,84.65,278.51,70.59,278.51,56.54Z"/><path class="cls-3" d="M164,88.2H132l-6.62,24.88L90.89,115,128,.16h40.06l36.35,112.92H170.49Zm-7.44-28.27L148,27.46l-8.56,32.47Z"/><path class="cls-3" d="M160.26,120.8h33.92V233.72H160.26Z"/><path class="cls-3" d="M244.75,149.23v14.54h47.33v27.14H244.75v14.7h53v28.27H210.82V121h86.91v28.27Z"/><polygon class="cls-3" points="99.08 28.27 99.08 0 12.17 0 12.17 114.4 34.2 113.44 34.5 112.45 46.1 92.12 46.1 75.77 65.39 75.77 71.98 71.65 74.4 75.77 93.43 75.77 93.43 48.63 46.1 48.63 46.1 28.27 99.08 28.27"/><polygon class="cls-3" points="129.88 120.8 91.27 120.8 73.34 182.83 63.58 149.07 44.98 153.99 30.55 154.17 16.07 150.45 12.93 147.65 0 233.72 36.19 233.72 41.19 171.2 58.64 233.72 88.04 233.72 105.65 171.2 110.5 233.72 146.84 233.72 129.88 120.8"/><path class="cls-4" d="M288.16,105.88c-8.93-6.1-25-9.06-49.06-9.06-7.07,0-14,.25-18.55.44-13.87.57-26.45,1.37-38.2,2.38-19.9,1.71-37.4,4-54.59,7-3,.5-6,1-9,1.57-8.56,1.55-17.14,3.24-26,5.07l-.52.1c-9.6,2-19.52,4.12-30.11,6.41,12.17-12.77,23.26-25,23.49-39.16,0-3.41-1.89-7.45-5.19-10.81a23.28,23.28,0,0,0-10.18-6,22.53,22.53,0,0,0-6.22-.89c-10.77,0-27.1,16.34-39,31.92l-.58.77C9.6,115.16,0,134.9,0,145.86a24,24,0,0,0,24,24,76.5,76.5,0,0,0,30.34-6.69c10.28-4.48,17.3-9.85,18.95-11.5a4.31,4.31,0,0,0,1.18-3.18c0-3.78-3.06-7-5.57-7-1,0-2.51.83-5,2.2-2,1.07-4.37,2.39-7.19,3.67a51.25,51.25,0,0,1-21.31,4.84c-6.08,0-9.7-3.09-9.7-8.27a5.77,5.77,0,0,1,.11-1l.09-.6,4.11-.79c8.76-1.7,18.27-3.47,28.35-5.22,10.3-1.78,21.19-3.54,32.46-5.19l6.68-1c17.08-2.4,34.93-4.51,52.86-6l4.4-.37c10.34-.83,20.69-1.45,30.92-1.82,6.83-.25,13.61-.38,20.3-.38,8,0,15.77.19,23.06.57,2.94.16,5.77.29,8.49.41,26.25,1.21,42.1,1.93,47.06,20.16a3.1,3.1,0,0,0,3.21,2.37c4.94,0,12.87-7.4,13.7-17.63C302.13,120,297.26,112.09,288.16,105.88ZM31.85,125c4.84-10,12.7-22.14,21.76-33.41C62.39,80.63,68.93,74.71,71.1,74.28a11.75,11.75,0,0,1,1.21,3.58c0,3.57-5.51,14.57-13.7,25.25C46.48,118.92,37.06,123.62,31.85,125ZM31.45,56c.77-3.46,17.71-24,20.79-25.92a3.65,3.65,0,0,1,2-.56,4.86,4.86,0,0,1,1.11.13c4.7,1.05,10.56,9,9.64,13.12-.08.37-.18.83-11.62,9.52-5.89,4.46-12.07,9-13.69,10.16a3.4,3.4,0,0,1-1.92.58,5.68,5.68,0,0,1-1.2-.15C33.64,62.24,30.76,59.09,31.45,56Z"/></g></g></svg>